<svg width="50" height="50" fill="none" xmlns="http://www.w3.org/2000/svg"><path d="M37.5 40.104h-25a5.73 5.73 0 0 1-5.73-5.729v-12.5a5.73 5.73 0 0 1 5.73-5.73h1.25l2.458-3.645a5.75 5.75 0 0 1 4.771-2.542h8.042a5.749 5.749 0 0 1 4.77 2.542l2.459 3.646h1.25a5.73 5.73 0 0 1 5.73 5.729v12.5a5.73 5.73 0 0 1-5.73 5.73Zm-25-20.833a2.604 2.604 0 0 0-2.604 2.604v12.5a2.604 2.604 0 0 0 2.604 2.604h25a2.604 2.604 0 0 0 2.604-2.604v-12.5a2.604 2.604 0 0 0-2.604-2.604h-2.083a1.563 1.563 0 0 1-1.292-.688l-2.875-4.395a2.583 2.583 0 0 0-2.083-1.167h-8.188a2.583 2.583 0 0 0-2.083 1.166l-3.021 4.396a1.562 1.562 0 0 1-1.292.688H12.5Z" fill="#fff"/><path d="M25 33.854a6.77 6.77 0 1 1 6.77-6.77 6.792 6.792 0 0 1-6.77 6.77Zm0-10.416a3.646 3.646 0 1 0 3.646 3.645A3.666 3.666 0 0 0 25 23.438Z" fill="#fff"/></svg>