<svg xmlns="http://www.w3.org/2000/svg" width="29" height="29" fill="none" viewBox="0 0 29 29">
  <g clip-path="url(#a)">
    <path fill="#868686" d="M14.5 0C6.504 0 0 6.504 0 14.5S6.504 29 14.5 29 29 22.496 29 14.5 22.496 0 14.5 0Zm0 27.067c-6.93 0-12.567-5.638-12.567-12.567 0-6.93 5.638-12.567 12.567-12.567 6.93 0 12.567 5.638 12.567 12.567 0 6.93-5.638 12.567-12.567 12.567Z"/>
    <path fill="#868686" d="m12.576 17.116-5.111-5.112-1.367 1.367 6.488 6.488L22.922 9.38l-1.377-1.36-8.969 9.095Z"/>
  </g>
  <defs>
    <clipPath id="a">
      <path fill="#fff" d="M0 0h29v29H0z"/>
    </clipPath>
  </defs>
</svg>
