<svg width="54" height="56" fill="none" xmlns="http://www.w3.org/2000/svg"><path d="M44.511.716c-1.311-.38-3.286-.917-4.231 4.81-.945 5.727.338 6.15 1.001 6.348.663.197 1.961.564 4.232-4.81 2.271-5.375.31-5.967-1.002-6.348Zm-6.333 14.966a2.044 2.044 0 1 0 4.09 0 2.044 2.044 0 0 0-4.09 0Zm14.247-7.067c-.889-.62-2.243-1.51-4.387 2.553-2.144 4.063-1.27 4.712-.818 5.008.451.296 1.326.917 4.373-2.553 3.046-3.47 1.749-4.401.832-5.008Zm-8.943 10.438a1.622 1.622 0 1 0 3.244 0 1.622 1.622 0 0 0-3.244 0Z" fill="#48EEFF" stroke="#231F20" stroke-miterlimit="10"/><path d="m34.595 19.688-.197-.86C32.55 10.703 27.81 5.54 20.602 5.046c-.31-.945-.959-1.876-1.41-1.988a10.65 10.65 0 0 0-4.852.253 10.72 10.72 0 0 0-4.528 1.89 3.244 3.244 0 0 0-.41 2.413C3.056 11.182 1.08 17.897 2.929 26.007l.198.86a3.907 3.907 0 0 0-2.412 4.966c.38 1.622 1.156 2.539 4.231 2.3a15.502 15.502 0 0 0 2.102-.17 4.584 4.584 0 0 0 2.99 1.27c1.129.24 6.715-.55 11.285-1.58s9.874-2.751 10.833-3.456c.98-.536 1.74-1.4 2.144-2.44.67-.215 1.323-.469 1.96-.762 2.822-1.086 3.132-2.257 2.751-3.88a3.894 3.894 0 0 0-4.415-3.427Z" fill="#FFE236" stroke="#231F20" stroke-miterlimit="10"/><path d="M24.03 8.573a6.037 6.037 0 0 1 3.752 2.694" stroke="#fff" stroke-miterlimit="10" stroke-linecap="round"/><path d="M12.407 20.168a68.43 68.43 0 0 1-2.031-8.873M9.798 25.67a170.674 170.674 0 0 1 18.125-4.133m-6.53-12.61a67.689 67.689 0 0 1 2.017 8.872" stroke="#231F20" stroke-miterlimit="10" stroke-linecap="round"/><path d="M51.818 40.113c.41-2.722.776-6.009-.225-6.785l-.142-.155v-.987c.281-.424.459-.907.522-1.41a3.457 3.457 0 1 0-6.84-1.002 3.67 3.67 0 0 0 0 1.311c-2.06-.409-4.233-.761-5.94-1.015a77.607 77.607 0 0 0-5.867-.65c.23-.38.384-.801.451-1.24a3.47 3.47 0 0 0-6.855-1.002c-.055.473-.017.952.113 1.41-.07.283-.155.607-.226.96l-.198.113c-1.17.451-1.763 3.71-2.158 6.418s-.761 5.924.198 6.742a41.325 41.325 0 0 0-.65 8.337c.114 1.072 1.51 1.41 2.667 1.551 1.157.141 2.581.282 2.99-.72a32.444 32.444 0 0 0 1.608-6.868c2.003.394 4.09.719 5.727.959 1.636.24 3.738.522 5.77.72a32.441 32.441 0 0 0-.48 7.052c.113 1.072 1.495 1.41 2.666 1.552 1.17.14 2.581.282 2.99-.734.494-.691 1.213-4.556 1.791-8.167 1.115-.508 1.693-3.71 2.088-6.39Z" fill="#FF52A1" stroke="#231F20" stroke-miterlimit="10"/><path d="M30.223 32.242a12.696 12.696 0 0 1-2.822 3.004m8.534-2.13a81.828 81.828 0 0 1-7.236 7.59m12.935-6.757a78.965 78.965 0 0 1-7.236 7.603m12.935-6.757a80.414 80.414 0 0 1-7.222 7.603m8.957-2.596a16.36 16.36 0 0 1-3.259 3.428" stroke="#231F20" stroke-miterlimit="10" stroke-linecap="round"/><path d="M48.87 28.955a1.41 1.41 0 0 1 .96 1.594" stroke="#fff" stroke-miterlimit="10" stroke-linecap="round"/></svg>