<svg xmlns="http://www.w3.org/2000/svg" width="29" height="29" fill="none" viewBox="0 0 29 29">
  <path fill="#17153B" d="M27.792 13.292H21.75a1.21 1.21 0 0 0-1.208 1.208 1.21 1.21 0 0 0 1.208 1.208h6.042c.664 0 1.208-.543 1.208-1.208 0-.665-.544-1.208-1.208-1.208ZM8.458 14.5a1.21 1.21 0 0 0-1.208-1.208H1.208C.544 13.292 0 13.835 0 14.5c0 .665.544 1.208 1.208 1.208H7.25A1.21 1.21 0 0 0 8.458 14.5Zm6.042 6.042a1.21 1.21 0 0 0-1.208 1.208v6.042c0 .664.543 1.208 1.208 1.208.665 0 1.208-.544 1.208-1.208V21.75a1.21 1.21 0 0 0-1.208-1.208ZM14.5 0c-.665 0-1.208.544-1.208 1.208V7.25A1.21 1.21 0 0 0 14.5 8.458a1.21 1.21 0 0 0 1.208-1.208V1.208C15.708.544 15.165 0 14.5 0Zm5.234 11.48a1.21 1.21 0 0 0 1.653.445l5.234-3.021a1.21 1.21 0 1 0-1.208-2.1l-5.234 3.021a1.212 1.212 0 0 0-.445 1.654ZM9.266 17.52a1.21 1.21 0 0 0-1.654-.445L2.38 20.096a1.21 1.21 0 1 0 1.208 2.1l5.234-3.021c.581-.34.778-1.073.445-1.654Zm9.909 2.652a1.21 1.21 0 1 0-2.1 1.208l3.021 5.233a1.21 1.21 0 1 0 2.1-1.208l-3.021-5.233ZM8.904 2.386a1.21 1.21 0 1 0-2.1 1.209l3.021 5.233a1.21 1.21 0 1 0 2.1-1.208L8.904 2.386Zm8.617 6.88a1.212 1.212 0 0 0 1.654-.445l3.02-5.234a1.212 1.212 0 0 0-2.099-1.208l-3.02 5.233a1.21 1.21 0 0 0 .445 1.654Zm-6.042 10.468a1.212 1.212 0 0 0-1.654.445l-3.02 5.234a1.212 1.212 0 0 0 2.099 1.208l3.02-5.233a1.21 1.21 0 0 0-.445-1.654Zm15.134.362-5.233-3.02a1.212 1.212 0 0 0-1.208 2.099l5.233 3.02a1.212 1.212 0 0 0 1.208-2.099ZM2.386 8.904l5.234 3.02a1.212 1.212 0 0 0 1.654-.445 1.205 1.205 0 0 0-.446-1.654l-5.233-3.02a1.212 1.212 0 0 0-1.209 2.099Z"/>
</svg>
