<svg xmlns="http://www.w3.org/2000/svg" width="99" height="99" fill="none" viewBox="0 0 99 99">
  <circle cx="49.5" cy="49.5" r="49.5" fill="#433D8B"/>
  <path fill="#48EEFF" stroke="#231F20" stroke-miterlimit="10" d="M67.011 14.216c-1.311-.38-3.286-.917-4.231 4.81-.945 5.727.338 6.15 1.001 6.348.663.197 1.961.564 4.232-4.81 2.271-5.375.31-5.967-1.002-6.348Zm-6.333 14.966a2.044 2.044 0 1 0 4.088 0 2.044 2.044 0 0 0-4.088 0Zm14.247-7.067c-.889-.62-2.243-1.51-4.387 2.553-2.144 4.063-1.27 4.712-.818 5.008.451.296 1.326.917 4.373-2.553 3.046-3.47 1.749-4.401.832-5.008Zm-8.943 10.438a1.622 1.622 0 1 0 3.244 0 1.622 1.622 0 0 0-3.244 0Z"/>
  <path fill="#FFE236" stroke="#231F20" stroke-miterlimit="10" d="m57.095 33.188-.197-.86C55.05 24.203 50.31 19.04 43.102 18.547c-.31-.945-.959-1.877-1.41-1.99a10.65 10.65 0 0 0-4.852.255 10.72 10.72 0 0 0-4.528 1.89 3.245 3.245 0 0 0-.41 2.412c-6.347 3.569-8.322 10.283-6.474 18.393l.198.86a3.907 3.907 0 0 0-2.412 4.966c.38 1.622 1.156 2.54 4.231 2.3a15.518 15.518 0 0 0 2.102-.17 4.585 4.585 0 0 0 2.99 1.27c1.129.24 6.715-.55 11.285-1.58s9.874-2.75 10.833-3.456a4.74 4.74 0 0 0 2.144-2.44c.67-.215 1.323-.469 1.96-.762 2.822-1.086 3.132-2.257 2.751-3.88a3.894 3.894 0 0 0-4.415-3.427Z"/>
  <path stroke="#fff" stroke-linecap="round" stroke-miterlimit="10" d="M46.53 22.073a6.038 6.038 0 0 1 3.752 2.694"/>
  <path stroke="#231F20" stroke-linecap="round" stroke-miterlimit="10" d="M34.907 33.668a68.432 68.432 0 0 1-2.031-8.873m-.578 14.374a170.651 170.651 0 0 1 18.125-4.133m-6.53-12.61a67.691 67.691 0 0 1 2.017 8.872"/>
  <path fill="#FF52A1" stroke="#231F20" stroke-miterlimit="10" d="M74.318 53.613c.41-2.722.776-6.009-.225-6.785l-.142-.155v-.987c.281-.423.459-.907.522-1.41a3.457 3.457 0 1 0-6.84-1.002 3.67 3.67 0 0 0 0 1.312 129.24 129.24 0 0 0-5.94-1.016 77.559 77.559 0 0 0-5.867-.649c.23-.38.384-.802.451-1.241a3.47 3.47 0 0 0-6.855-1.002c-.055.473-.017.952.113 1.41-.07.283-.155.607-.226.96l-.197.113c-1.171.451-1.764 3.71-2.159 6.418-.395 2.708-.761 5.924.198 6.742a41.325 41.325 0 0 0-.65 8.337c.114 1.072 1.51 1.41 2.667 1.551 1.157.141 2.581.282 2.99-.719a32.443 32.443 0 0 0 1.608-6.87c2.003.396 4.09.72 5.727.96 1.636.24 3.738.522 5.77.72a32.441 32.441 0 0 0-.48 7.052c.113 1.072 1.495 1.41 2.666 1.552 1.17.14 2.581.282 2.99-.734.494-.691 1.213-4.556 1.792-8.167 1.114-.508 1.692-3.71 2.087-6.39Z"/>
  <path stroke="#231F20" stroke-linecap="round" stroke-miterlimit="10" d="M52.722 45.742a12.7 12.7 0 0 1-2.82 3.005m8.533-2.13a81.803 81.803 0 0 1-7.236 7.588m12.935-6.756a78.978 78.978 0 0 1-7.236 7.603m12.935-6.757a80.401 80.401 0 0 1-7.222 7.603m8.957-2.595a16.361 16.361 0 0 1-3.259 3.427"/>
  <path stroke="#fff" stroke-linecap="round" stroke-miterlimit="10" d="M71.37 42.456a1.41 1.41 0 0 1 .96 1.593"/>
  <path fill="#fff" d="M49.566 87.7a3.736 3.736 0 0 1-.44-.74c-.12-.28-.247-.613-.38-1l-.24-.6c-.12-.333-.26-.62-.42-.86-.84.12-1.527.18-2.06.18-.294 0-.62-.007-.98-.02-.347-.027-.607-.04-.78-.04a21.1 21.1 0 0 0-1.6-.08c-.16.213-.3.44-.42.68-.107.24-.247.6-.42 1.08-.24.693-.447 1.187-.62 1.48-.12.2-.354.3-.7.3a1.89 1.89 0 0 1-.82-.18c-.24-.133-.36-.313-.36-.54.106-.507.273-1.04.5-1.6.24-.573.58-1.333 1.02-2.28l.8-1.96c.44-1.12.84-2.08 1.2-2.88.373-.8.86-1.747 1.46-2.84a.962.962 0 0 1 .4-.4c.186-.12.393-.18.62-.18.253 0 .433.02.54.06a.49.49 0 0 1 .28.16c.066.067.166.213.3.44.453.707.84 1.433 1.16 2.18.333.747.753 1.78 1.26 3.1l.42 1.06c.373.96.693 1.767.96 2.42.28.64.587 1.227.92 1.76.213.347.32.587.32.72 0 .32-.1.567-.3.74-.187.16-.434.24-.74.24-.387 0-.68-.133-.88-.4Zm-2.06-4.84c-.214-.453-.52-1.24-.92-2.36-.413-1.2-.827-2.153-1.24-2.86-.253.64-.627 1.467-1.12 2.48-.334.627-.713 1.533-1.14 2.72.853.107 1.773.16 2.76.16.707 0 1.26-.047 1.66-.14Zm6.893 5.2c-.4 0-.68-.12-.84-.36-.147-.24-.22-.58-.22-1.02l.02-2.6-.02-.4a61.905 61.905 0 0 1-.1-3.14l.08-2.38.02-1.2c0-.4.013-.707.04-.92a.814.814 0 0 1 .26-.52c.146-.133.38-.2.7-.2.4 0 .687.1.86.3.173.187.26.513.26.98l-.02.42a52.744 52.744 0 0 0-.08 2.42c0 .6.013 1.307.04 2.12.026.8.047 1.367.06 1.7.066 1.427.1 2.653.1 3.68 0 .4-.087.687-.26.86-.16.173-.46.26-.9.26Z"/>
</svg>
