<svg xmlns="http://www.w3.org/2000/svg" width="29" height="28" fill="none" viewBox="0 0 29 28">
  <path fill="#17153B" fill-rule="evenodd" d="M29 6.6v1.147c-.107.37-.249.73-.425 1.083a10.903 10.903 0 0 1-1.727 2.39 4.862 4.862 0 0 1-1.983 1.02 86.75 86.75 0 0 1-3.228.254A2178.43 2178.43 0 0 1 8.836 26.832c-1.337.843-2.536.641-3.597-.606-.778-1.38-.702-2.696.227-3.95L17.87 8.32a88.25 88.25 0 0 0 .227-3.313c.14-1.326.66-2.42 1.557-3.282L21.24.451c1.246-.747 2.37-.566 3.37.541a.826.826 0 0 1-.056.701l-2.266 2.55c-.34.488-.34.976 0 1.465a43.68 43.68 0 0 0 1.841 2.007c.343.194.683.173 1.02-.064L27.47 5.04c.215-.18.442-.202.68-.064.437.443.72.985.85 1.625ZM7.25 23.04c.738-.01 1.154.393 1.246 1.21-.123.936-.595 1.307-1.416 1.116-.663-.39-.842-.973-.538-1.752.187-.28.423-.47.708-.574Z" clip-rule="evenodd" opacity=".981"/>
  <path fill="#17153B" fill-rule="evenodd" d="M0 9.786v-.7a93.798 93.798 0 0 1 3.2-3.697 3.321 3.321 0 0 1-.368-.924 2.08 2.08 0 0 1 .198-.605 43.625 43.625 0 0 1 1.841-2.007c.462-.195.85-.078 1.161.35.27-.346.6-.59.991-.733A218.74 218.74 0 0 1 13.34.355c.49-.007.915.173 1.274.542l.708.796c.232.372.25.754.057 1.147a383.182 383.182 0 0 0-3.767 4.27l3.002 3.44a418.244 418.244 0 0 1-3.936 4.461l-3.059-3.44-2.52 2.835c-.263.217-.546.26-.85.127A159.694 159.694 0 0 1 0 9.786Z" clip-rule="evenodd" opacity=".987"/>
  <path fill="#17153B" fill-rule="evenodd" d="M19.598 16.158a796.38 796.38 0 0 1 5.466 6.117c.695 1.242.714 2.495.056 3.76-.938 1.258-2.1 1.608-3.483 1.052l-.567-.383a777.919 777.919 0 0 1-5.38-6.085l3.908-4.46Z" clip-rule="evenodd" opacity=".984"/>
</svg>
