<svg width="50" height="50" fill="none" xmlns="http://www.w3.org/2000/svg"><path d="M36.458 38.02a1.563 1.563 0 1 1 0-3.124c3.459 0 4.688-1.73 4.688-6.625a7.438 7.438 0 0 0-6.771-6.771 6.875 6.875 0 0 0-2.083.375 1.543 1.543 0 0 1-2.084-1.02 10.938 10.938 0 0 0-21.354 3.25c0 7.166 1.584 10.79 4.688 10.79a1.562 1.562 0 1 1 0 3.126c-5.209 0-7.813-4.688-7.813-13.917a14.062 14.062 0 0 1 27.084-5.583c.55-.1 1.107-.148 1.666-.146a10.562 10.562 0 0 1 9.896 9.896c-.104 2.666-.104 9.75-7.917 9.75Z" fill="#fff"/><path d="M30.896 32.604a1.604 1.604 0 0 1-1.104-.458L25 27.354l-4.792 4.792A1.562 1.562 0 0 1 18 29.937l5.896-5.895a1.54 1.54 0 0 1 2.208 0L32 29.937a1.562 1.562 0 0 1 0 2.209 1.666 1.666 0 0 1-1.104.458Z" fill="#fff"/><path d="M25 39.958a1.563 1.563 0 0 1-1.563-1.562v-13.25a1.562 1.562 0 1 1 3.125 0v13.25A1.563 1.563 0 0 1 25 39.958Z" fill="#fff"/></svg>